<?xml version="1.0"?>
<svg width="500" height="500" xmlns="http://www.w3.org/2000/svg" xmlns:svg="http://www.w3.org/2000/svg">
 <clipPath id="a">
  <path d="m-210.000017,1002.500016l800,0l0,-800l-800,0l0,800z" id="svg_1"/>
 </clipPath>
 <g class="layer">
  <title>Layer 1</title>
  <text fill="#ffffff" font-size="48.300999" font-weight="600" id="svg_9" transform="matrix(1.18668 0 0 1.18668 338.214 600.894)" x="-254.679537" y="-199.685395">
   <tspan id="svg_10" x="-254.679537" y="-199.685395">DON&#x27;T SHOOT</tspan>
  </text>
  <g clip-path="url(#a)" id="svg_3" transform="matrix(1.33333 0 0 -1.33333 0 1066.67)">
   <path d="m-190.500016,193.500015c-0.512,-1.514 -0.568,-3.123 -0.978,-4.66c-0.044,-0.153 -0.132,-0.463 -0.174,-0.619c-0.214,-0.612 -0.277,-1.258 -0.349,-1.899c-0.746,-0.045 -1.489,-0.102 -2.232,-0.117c-2.927,0.072 -5.854,0 -8.778,0.039c1.416,7.833 2.704,15.691 4.142,23.521c3.938,0.156 7.87,0.382 11.805,0.629c-1.192,-5.623 -2.275,-11.269 -3.436,-16.894m-15.255,-7.265c-3.838,0 -7.677,0.003 -11.512,0c0.939,6.597 1.817,13.203 2.758,19.8c0.503,1.08 1.366,1.994 1.745,3.155c3.15,0.079 6.293,0.271 9.443,0.355c-0.858,-7.767 -1.627,-15.54 -2.434,-23.31m-14.217,0.003c-3.158,0 -6.31,-0.015 -9.466,0.006c-0.054,3.384 -0.274,6.763 -0.397,10.144c-0.006,0.253 -0.019,0.763 -0.024,1.019c1.889,-0.571 4.001,-0.382 5.61,0.816c1.501,1.323 2.509,3.101 3.141,4.981c0.659,0.214 1.311,0.428 1.973,0.635c-0.28,-5.866 -0.575,-11.732 -0.837,-17.601m-9.893,52.83l0,0.671l-0.012,0.746c-0.01,0.523 -0.021,1.044 -0.033,1.564c0.006,0.62 0.014,1.24 0.017,1.859c0,0.31 0,0.62 0.006,0.927c0.007,13.464 0.007,26.926 0,40.391c1.782,0.006 3.563,0.021 5.346,0.036c0.052,-2.825 0.752,-5.58 1.69,-8.231c-1.835,-3.525 -2.276,-7.77 -0.799,-11.506c-1.005,-2.674 -1.893,-5.496 -1.61,-8.393c0.042,-1.236 0.521,-2.406 0.647,-3.628c-0.385,-1.056 -0.956,-2.06 -1.071,-3.197c-0.337,-2.028 0.349,-4.028 0.385,-6.056c-0.37,-0.4 -0.752,-0.794 -1.071,-1.236c-0.827,-0.8 -1.197,-1.929 -1.341,-3.041c-0.241,-2.293 0.054,-4.6 0.454,-6.859c-0.762,-1.2 -1.432,-2.506 -1.589,-3.938c-0.228,-1.585 0.078,-3.174 0.35,-4.732c-0.473,-0.409 -0.94,-0.824 -1.397,-1.248c0.031,5.291 -0.017,10.583 0.028,15.871m7.713,5.709l0.387,-0.057c-0.029,0.274 -0.087,0.822 -0.117,1.095l0.124,0.241c0.954,2.065 0.881,4.486 0.363,6.666c-0.014,0.087 -0.034,0.174 -0.062,0.262c-0.111,0.382 -0.235,0.755 -0.353,1.131c0.801,1.615 1.462,3.33 1.628,5.141c0.213,2.025 -0.174,4.049 -0.71,5.995c0.632,1.035 1.182,2.142 1.381,3.352c0.521,2.593 -0.217,5.198 -0.343,7.785c1.357,2.776 1.817,5.938 1.249,8.982c2.235,0.109 4.475,0.148 6.71,0.262c-0.345,-2.831 0.206,-5.671 1.063,-8.36c0.412,-1.116 -0.563,-2.048 -0.899,-3.041c-1.3,-2.786 -1.222,-6.014 -0.239,-8.883c-0.947,-1.916 -1.732,-3.932 -2.063,-6.05c-0.409,-1.654 0.147,-3.291 0.403,-4.915c0.139,-0.692 -0.376,-1.267 -0.623,-1.871c-1.251,-2.383 -0.457,-5.057 -0.357,-7.581c-1.114,-0.737 -2.152,-1.691 -2.576,-2.993c-0.941,-2.467 -0.384,-5.12 -0.171,-7.656c-0.482,-0.921 -1.204,-1.712 -1.535,-2.714c-0.685,-1.813 -0.448,-3.802 -0.123,-5.67c-1.052,-0.677 -2.066,-1.492 -2.644,-2.626c-1.026,-1.925 -1.248,-4.136 -1.643,-6.245c-1.41,-0.03 -2.821,-0.027 -4.232,-0.021c0.659,1.254 1.246,2.566 1.468,3.98c0.244,1.14 -0.015,2.379 0.563,3.438c0.824,1.763 1.485,3.658 1.465,5.628c0.065,1.09 -0.184,2.199 0.009,3.277c0.59,1.182 1.275,2.328 1.636,3.609c0.923,2.53 0.249,5.234 0.241,7.839m11.672,9.407c0.378,1.011 1.046,1.896 1.386,2.93c1.011,2.518 0.782,5.34 0.064,7.903c0.836,1.092 1.521,2.334 1.751,3.703c0.396,2.355 -0.031,4.732 -0.175,7.087c2.055,2.921 2.25,6.675 1.603,10.081c2.031,0.069 4.058,0.285 6.092,0.355c-0.903,-3.304 0.102,-6.757 1.269,-9.864c-1.438,-2.127 -2.502,-4.6 -2.457,-7.214c0.045,-1.357 0.451,-2.653 0.839,-3.941c-0.249,-0.791 -0.702,-1.501 -1.017,-2.265l-0.063,0.006c-0.65,-1.675 -1.312,-3.405 -1.263,-5.234c-0.067,-1.444 0.273,-2.855 0.703,-4.221c-0.775,-1.073 -1.531,-2.256 -1.624,-3.618c-0.129,-1.811 0.168,-3.616 0.322,-5.418c-1.733,-0.87 -3.087,-2.5 -3.34,-4.455c-0.468,-2.154 0.22,-4.326 0.124,-6.474c-0.857,-1.14 -1.772,-2.322 -2.001,-3.775c-0.312,-1.514 -0.03,-3.051 0.22,-4.549c-1.345,-0.656 -2.533,-1.681 -3.227,-3.02c-0.855,-1.576 -1.033,-3.384 -1.487,-5.087c-2.334,-0.105 -4.672,-0.066 -7.006,-0.066c1.282,1.423 2.518,2.981 3.03,4.861c0.315,0.978 0.324,2.007 0.496,3.008c0.387,0.933 0.996,1.76 1.375,2.699c0.815,1.805 1.013,3.814 0.927,5.773c-0.197,1.086 0.785,1.778 1.211,2.659c1.426,2.34 1.607,5.177 1.251,7.836c-0.309,1.224 0.651,2.217 0.955,3.339c0.877,2.229 0.721,4.702 0.042,6.961m-24.466,-30.936c-0.466,0.394 -0.936,0.782 -1.411,1.158c0.271,1.66 0.695,3.363 0.322,5.045c-0.175,1.098 -0.655,2.109 -1.176,3.08c-0.166,1.044 -0.039,2.112 0.012,3.162c0.201,2.196 0.424,4.584 -0.65,6.6c-0.403,0.827 -1.227,1.33 -1.717,2.079c0.033,1.952 0.613,3.877 0.406,5.838c-0.097,1.188 -0.611,2.284 -1.15,3.328c0.433,1.566 0.803,3.173 0.806,4.81c-0.062,2.478 -0.824,4.87 -1.693,7.171c1.158,3.074 1.245,6.555 0,9.614c-0.253,0.848 -0.963,1.688 -0.566,2.599c0.81,2.434 1.445,4.961 1.459,7.539c1.782,-0.03 3.565,-0.036 5.346,-0.045c0,-14.921 0,-29.842 0.003,-44.759c-0.13,-1.913 -0.081,-3.823 0.009,-5.737c-0.021,-3.826 -0.018,-7.656 0,-11.482m-0.472,-37.016c-3.147,0.006 -6.294,0 -9.44,0.003c-0.307,5.866 -0.554,11.738 -0.861,17.604c0.662,-0.243 1.408,-0.346 2.013,-0.731c1.287,-2.048 2.707,-4.272 5.042,-5.231c1.128,-0.521 2.392,-0.47 3.601,-0.37c-0.028,-3.761 -0.214,-7.518 -0.355,-11.275m-26.088,23.326c3.135,-0.106 6.267,-0.298 9.404,-0.362c0.439,-1.097 1.131,-2.054 1.745,-3.052c0.977,-6.619 1.795,-13.264 2.8,-19.875c-3.847,-0.07 -7.694,-0.025 -11.542,-0.025c-0.776,7.774 -1.597,15.543 -2.407,23.314m-11.352,-23.326c-0.668,3.294 -4.35,21.524 -4.91,24.165c3.941,-0.259 7.885,-0.469 11.829,-0.641c1.335,-7.842 2.764,-15.673 4.076,-23.521c-3.667,0 -7.331,0.003 -10.995,-0.003m92.775,31.406c-9.319,-0.244 -18.642,-0.415 -27.967,-0.464c1.098,1.182 2.079,2.506 2.596,4.053c0.37,1.197 0.292,2.511 0.851,3.648c0.765,1.165 1.493,2.377 1.877,3.728c0.518,1.618 0.386,3.342 0.362,5.014c1.492,1.703 2.707,3.755 2.96,6.041c0.204,1.534 0.036,3.086 -0.277,4.593c0.785,1.495 1.607,3.023 1.85,4.72c0.325,1.667 -0.1,3.357 -0.599,4.943c1.228,1.864 2.338,3.943 2.37,6.232c0.091,1.586 -0.279,3.138 -0.679,4.657c0.767,0.93 1.498,1.931 1.814,3.111c0.674,2.289 0.204,4.687 0.018,7.006c-0.075,0.758 0.231,1.474 0.388,2.199c0.539,0.568 1.179,1.131 1.279,1.958c0.694,2.506 0.538,5.153 -0.205,7.626c1.282,0.057 2.653,0.132 3.745,0.893c1.089,0.68 1.742,1.952 1.694,3.231c-0.027,3.011 0.048,6.028 -0.036,9.04c-0.181,1.979 -2.146,3.158 -3.944,3.438c-10.866,1.832 -21.878,2.683 -32.889,2.864l-14.941,0c-5.123,-0.09 -10.244,-0.301 -15.351,-0.698c-0.197,0.001 -0.39,-0.018 -0.579,-0.046c-2.567,-0.202 -5.137,-0.382 -7.693,-0.712l-0.41,-0.048c-0.334,-0.042 -0.662,-0.097 -0.99,-0.154c-2.905,-0.481 -5.85,-0.731 -8.724,-1.374c-1.651,-0.401 -3.275,-1.757 -3.242,-3.58c-0.009,-3.015 -0.03,-6.029 0.012,-9.043c-0.042,-1.314 0.881,-2.41 1.925,-3.086c1.044,-0.626 2.286,-0.659 3.466,-0.734c-0.729,-2.518 -0.994,-5.243 -0.166,-7.774c0.334,-1.23 1.134,-2.25 1.652,-3.393c-0.157,-3.053 -1.038,-6.425 0.707,-9.205c1.504,-0.382 3.064,-0.517 4.593,-0.788c0.629,2.043 1.011,4.242 0.386,6.332c-0.341,1.658 -1.336,3.048 -2.038,4.549c0.994,3.158 2.127,6.527 1.225,9.855c2.033,-0.13 4.061,-0.304 6.095,-0.389c-0.671,-3.119 -0.551,-6.563 1.134,-9.358c0.668,-0.929 0.276,-2.103 0.225,-3.147c-0.292,-2.596 -0.328,-5.478 1.306,-7.673c0.734,-0.777 0.099,-1.808 0.054,-2.708c1.727,-0.951 3.526,-1.781 5.222,-2.797c-0.283,1.573 -0.918,3.044 -1.546,4.5c-0.403,0.737 -0.042,1.555 0.105,2.307c0.394,1.315 0.506,2.714 0.244,4.067c-0.237,1.944 -1.147,3.691 -1.997,5.421c0.853,2.963 1.663,6.023 1.248,9.142c2.225,-0.109 4.455,-0.19 6.684,-0.223c-0.439,-3.074 -0.16,-6.305 1.341,-9.069c-0.294,-2.458 -0.788,-4.946 -0.451,-7.427c0.166,-1.321 0.737,-2.542 1.43,-3.665c-0.518,-2.048 -1.041,-4.184 -0.687,-6.308c0.229,-1.693 0.84,-3.309 1.607,-4.828c-0.505,-1.748 -0.963,-3.58 -0.683,-5.409c0.145,-1.383 0.613,-2.698 1.077,-3.998c0.304,-0.743 -0.021,-1.534 -0.085,-2.295c-0.463,-2.572 -0.026,-5.276 1.114,-7.62c0.542,-0.926 1.046,-1.922 0.842,-3.038c-0.105,-1.796 -0.024,-3.637 0.602,-5.345c0.399,-1.3 1.296,-2.464 1.245,-3.881c0.033,-1.958 0.644,-3.86 1.646,-5.532c-1.42,0.006 -2.837,0.006 -4.257,0.018c-0.46,2.211 -0.625,4.564 -1.817,6.537c-0.578,1.005 -1.525,1.705 -2.467,2.34c0.238,1.58 0.508,3.204 0.124,4.783c-0.268,1.339 -1.041,2.497 -1.853,3.565c0.162,1.14 0.285,2.283 0.373,3.429c-1.047,-1.362 -2.287,-2.566 -3.68,-3.57c-0.225,-2.747 0.136,-5.608 1.631,-7.978c0.947,-1.321 0.638,-3.023 1.197,-4.485c0.547,-1.778 1.736,-3.252 2.972,-4.603c-2.337,0 -4.675,0.036 -7.012,0.03c-0.517,2.256 -0.902,4.669 -2.452,6.498c-0.625,0.725 -1.473,1.203 -2.283,1.69c0.334,1.529 0.389,3.099 0.25,4.654c-1.687,-0.905 -3.273,-1.991 -4.976,-2.87c0.485,-0.956 1.15,-1.814 1.568,-2.801c0.22,-1.013 0.237,-2.069 0.593,-3.053c0.493,-1.534 1.473,-2.851 2.578,-4.007c-9.344,0.034 -18.682,0.247 -28.019,0.449c-0.163,-1.468 -0.096,-3.066 0.777,-4.323c0.51,-0.863 1.537,-1.399 1.716,-2.449c0.639,-2.482 1.322,-4.957 1.965,-7.439c0.632,-2.322 1.237,-4.651 1.865,-6.974c0.936,-3.534 1.911,-7.056 2.813,-10.6c-0.346,-0.211 -0.689,-0.421 -1.029,-0.632c0.024,-2.52 2.054,-4.942 4.654,-4.984c7.006,-0.039 33.178,-0.006 36.612,-0.009c0.052,-2.789 0.112,-5.577 0.133,-8.366c1.916,0.174 4.59,0.277 6.515,0.222c0.017,2.714 0.053,5.427 0.099,8.141c12.171,0.006 23.597,-0.013 35.772,0.009c2.617,-0.022 4.717,2.383 4.75,4.927c-0.166,0.109 -0.503,0.331 -0.671,0.439c-0.184,0.578 -0.061,1.183 0.054,1.76c0.13,0.53 6.298,24.24 7.063,24.875c1.459,1.357 2.091,3.48 1.63,5.418" fill="#ffffff" id="svg_4" transform="translate(464.435 383.193)"/>
   <path d="m-190.500016,193.500015c-2.857,0.761 -5.944,1.917 -7.626,4.509c-0.803,1.125 -0.761,2.578 -0.463,3.863c0.532,-2.115 2.208,-3.721 4.166,-4.57c4.031,-1.913 8.565,-2.31 12.966,-2.418c9.629,-0.135 19.279,1.645 28.228,5.192c3.971,1.631 7.952,3.649 10.828,6.922c1.229,1.39 1.913,3.246 1.666,5.108c0.794,-1.273 1.317,-2.831 0.842,-4.323c-0.734,-2.13 -2.277,-3.884 -4.003,-5.283c-2.372,-1.868 -5.034,-3.333 -7.78,-4.572c-7.379,-3.327 -15.423,-4.96 -23.461,-5.586c-5.134,-0.331 -10.366,-0.175 -15.363,1.158m-3.923,10.387c0.431,2.037 2.293,3.288 3.908,4.377c4.612,2.849 9.834,4.534 15.086,5.746c6.886,1.546 13.989,2.451 21.045,1.859c2.461,-0.183 4.952,-0.64 7.184,-1.73c0.948,-0.478 1.965,-1.227 2.112,-2.358c0.114,-1.128 -0.671,-2.067 -1.39,-2.837c-1.808,-1.817 -4.118,-3.026 -6.419,-4.094c-3.083,-1.336 -6.276,-2.436 -9.537,-3.243c-1.973,-0.545 -3.985,-0.92 -5.992,-1.317c-5.201,-0.87 -10.489,-1.324 -15.762,-1.035c-2.876,0.207 -5.819,0.622 -8.417,1.94c-0.991,0.509 -1.932,1.51 -1.818,2.692m54.452,-4.428c1.997,1.748 3.829,3.869 4.557,6.471c0.569,2.067 0.06,4.35 -1.296,6.001c-2.133,2.672 -5.454,3.974 -8.631,4.937c-6.109,1.651 -12.52,2.075 -18.816,1.546c-9.557,-0.764 -19.138,-3.081 -27.552,-7.782c-3.204,-1.775 -6.299,-3.884 -8.664,-6.715c-1.413,-1.765 -2.493,-3.97 -2.316,-6.287c0.18,-2.259 1.63,-4.217 3.418,-5.52c2.824,-2.088 6.271,-3.083 9.667,-3.784c3.667,-0.695 7.413,-0.903 11.14,-0.86c8.983,0.186 17.95,1.867 26.34,5.096c4.331,1.738 8.594,3.838 12.153,6.897" fill="#ffffff" id="svg_5" transform="translate(352.484 424.063)"/>
   <path d="m-190.500016,193.500015c0.59,-2.094 2.521,-3.387 4.356,-4.326c3.538,-1.717 7.499,-2.322 11.395,-2.518c10.788,-0.517 21.59,1.751 31.568,5.779c1.886,0.544 1.535,3.613 -0.264,3.986c-0.855,0.009 -1.613,-0.442 -2.398,-0.71c-8.086,-2.794 -16.349,-5.655 -24.992,-5.821c-4.302,-0.123 -8.841,-0.349 -12.833,1.549c-1.543,0.758 -3.234,1.733 -3.826,3.451c-0.69,3.197 0.791,6.248 1.546,9.286c-1.492,-0.093 -1.983,-1.639 -2.629,-2.728c-1.336,-2.401 -2.548,-5.144 -1.923,-7.948" fill="#ffffff" id="svg_6" transform="translate(286.521 423.497)"/>
   <path d="m-190.500016,193.500015c-8.047,-2.097 -16.13,-4.229 -24.406,-5.216c-5.306,-0.704 -10.682,-0.578 -16.006,-0.202l0.006,0.066c-2.214,0.175 -4.416,0.436 -6.613,0.749c-3.667,0.836 -7.334,2.295 -10.026,5.009c-0.941,0.893 -1.546,2.151 -1.573,3.453c-0.253,4.049 1.889,7.677 3.155,11.392c-1.098,-0.012 -1.961,-0.722 -2.484,-1.633c-2.13,-3.129 -4.47,-6.441 -4.708,-10.351c-0.196,-2.187 0.902,-4.293 2.488,-5.737c2.852,-2.62 6.479,-4.226 10.174,-5.276c9.882,-2.674 20.287,-2.795 30.415,-1.715c7.046,0.86 14.052,2.241 20.793,4.498c2.256,0.959 1.389,5.423 -1.215,4.963" fill="#ffffff" id="svg_7" transform="translate(342.585 418.293)"/>
  </g>
 </g>
</svg>